<svg xmlns="http://www.w3.org/2000/svg" viewBox="0 0 168 168">
  <circle cx="84" cy="84" r="84" fill="#1DB954"/>
  <path d="M117.8 117.8c-1.4 2.3-4.4 3-6.7 1.6-18.4-11.2-41.5-13.8-68.7-7.5-2.6.6-5.3-.9-5.9-3.5-.6-2.6.9-5.3 3.5-5.9 29.8-6.8 55.4-3.9 76.2 8.7 2.3 1.3 3 4.3 1.6 6.6zm10.3-21.8c-1.8 2.9-5.6 3.8-8.5 2-21.1-13-53.3-16.8-78.3-9.2-3.2 1-6.6-0.8-7.6-4-1-3.2.8-6.6 4-7.6 28.5-8.6 64-4.5 88.4 10.5 2.9 1.8 3.8 5.5 2 8.3zm0.9-22.7c-25.3-15-67-16.4-91.2-9.1-3.9 1.2-8-1-9.2-4.9-1.2-3.9 1-8 4.9-9.2 27.7-8.4 73.8-6.8 102.9 10.5 3.5 2.1 4.6 6.6 2.5 10.1-2.1 3.4-6.6 4.6-10 2.6z" fill="#191414"/>
</svg>
